<?xml version="1.0" encoding="iso-8859-1"?>
<!-- Uploaded to: SVG Repo, www.svgrepo.com, Generator: SVG Repo Mixer Tools -->
<svg version="1.1" id="Layer_1" xmlns="http://www.w3.org/2000/svg" xmlns:xlink="http://www.w3.org/1999/xlink" 
	 viewBox="0 0 512 512" xml:space="preserve">
<polygon style="fill:#F7C02D;" points="256,0 235.085,299.824 256,512 463.15,512 463.15,234.767 493.439,234.767 "/>
<polygon style="fill:#FBE27B;" points="18.561,234.767 48.85,234.767 48.85,512 256,512 256,0 "/>
<g>
	
		<rect x="240.324" y="155.839" transform="matrix(-0.7071 -0.7071 0.7071 -0.7071 212.7717 722.3889)" style="fill:#288FD9;" width="31.347" height="322.578"/>
	<path style="fill:#288FD9;" d="M208.682,205.356c-8.9-8.9-20.566-13.351-32.231-13.351l-20.915,45.583l20.915,45.583
		c11.665,0,23.33-4.45,32.231-13.351C226.483,252.018,226.483,223.157,208.682,205.356z"/>
</g>
<path style="fill:#8BCBF1;" d="M144.219,205.356c-17.801,17.801-17.801,46.662,0,64.463c8.9,8.9,20.566,13.351,32.231,13.351
	v-91.164C164.785,192.005,153.119,196.455,144.219,205.356z"/>
<path style="fill:#288FD9;" d="M367.781,364.455c-8.9-8.9-20.566-13.351-32.231-13.351l-20.915,45.583l20.915,45.583
	c11.665,0,23.33-4.45,32.231-13.351C385.582,411.118,385.582,382.257,367.781,364.455z"/>
<path style="fill:#8BCBF1;" d="M303.318,364.455c-17.801,17.801-17.801,46.662,0,64.463c8.9,8.9,20.566,13.351,32.231,13.351
	v-91.164C323.884,351.106,312.219,355.556,303.318,364.455z"/>
</svg>